<?xml version="1.0" encoding="utf-8"?>
<!-- Generator: Adobe Illustrator 17.1.0, SVG Export Plug-In . SVG Version: 6.00 Build 0)  -->
<!DOCTYPE svg PUBLIC "-//W3C//DTD SVG 1.1//EN" "http://www.w3.org/Graphics/SVG/1.1/DTD/svg11.dtd">
<svg version="1.1" id="Layer_1" xmlns="http://www.w3.org/2000/svg" xmlns:xlink="http://www.w3.org/1999/xlink" x="0px" y="0px"
	 viewBox="0 0 358 359.7" enable-background="new 0 0 358 359.7" xml:space="preserve">
<g>
	<g>
		<path fill="#D14264" d="M92.4,219.6c-36.3-25.5-69.9-52-69.9-99.8c0-43.2,35-78.3,78.3-78.3c18.2,0,34.9,6.2,48.2,16.6
			c1.1-2.4,2.2-4.8,3.3-7.1c-15.5-14.8-36.6-24-59.7-24C44.7,27,6,65.7,6,113.5c0,55.8,41.5,85.4,84.1,115
			C90.8,225.5,91.6,222.6,92.4,219.6z"/>
		<path fill="#D14264" d="M265.5,27c-20.4,0-39.2,7.1-54,19c1.1,2.6,2.3,5.3,3.4,8c12.2-7.9,26.8-12.5,42.4-12.5
			c43.2,0,78.3,35,78.3,78.3c0,45.7-30.8,72-65.2,96.4c0.8,3,1.6,6,2.4,9c40.8-28.6,79.2-58,79.2-111.7C352,65.7,313.3,27,265.5,27z
			"/>
		<path fill="#D14264" d="M232.9,242.9c-25.5,19.4-47.5,41.6-53.9,74.3c-4-20.4-14-36.6-27.2-50.7c-2,1.9-4.1,3.8-6.1,5.8
			c16.1,16.3,28.6,35.3,33.3,59.4c7-35.7,30.8-60.1,58.7-81.4C236,247.6,234.4,245.2,232.9,242.9z"/>
	</g>
	<g id="Fill_1_">
		<path fill="#D14264" d="M184.8,16.6c2.9,3.9,8.7,13.3,18.2,35.4c8.8,20.4,18.8,46.9,28.2,74.7c1.3,3.8,2.6,7.7,4,11.7
			c9.6,28.3,21.6,63.6,30.3,99.1c5.5,22.4,9.1,42.5,10.9,60.5c-3.4-6.3-7-12.9-10.7-19.5c-31.9-57.2-40.5-61.8-48.4-61.8
			c-17.4,0-39.4,12.7-69.2,40c-18.4,16.8-40.2,39.6-66.1,69.2c4.9-47.8,20.2-112.1,43-179.1c11.9-34.9,24.9-67.6,36.7-92
			C173.8,29.8,181.2,20.2,184.8,16.6 M185.7,4.8c-27,0-115,234.3-115.3,350c60.3-71,116-128,147-128c12.8,0,69.7,113.3,69.7,113.3
			c5.8-68.8-26.9-158.9-46.3-216.6C221.2,65.8,196,4.8,185.7,4.8L185.7,4.8z"/>
		<path fill="#D14264" d="M216.3,160.2c0,0-19.7-2.5-24.7-5.3c-4.5-2.6-9.5-84-11-84s-6.3,81.8-11,84c-7.1,3.3-24.7,5.3-24.7,5.3
			l20.7,12l-3.3,22.8c0,0,14.6-14.4,18.3-14.4s18.3,14.4,18.3,14.4l-3.3-22.8L216.3,160.2z"/>
	</g>
</g>
</svg>
